<svg xmlns="http://www.w3.org/2000/svg" width="34" height="32" viewBox="0 0 34 32" fill="none">
<path d="M11.7347 9.1303L15.3996 5.44938V20.7972C15.3996 21.2217 15.5682 21.6287 15.8683 21.9289C16.1685 22.229 16.5755 22.3976 17 22.3976C17.4245 22.3976 17.8315 22.229 18.1317 21.9289C18.4318 21.6287 18.6004 21.2217 18.6004 20.7972V5.44938L22.2653 9.1303C22.4141 9.2803 22.5911 9.39936 22.7861 9.48061C22.9811 9.56186 23.1903 9.60369 23.4016 9.60369C23.6129 9.60369 23.822 9.56186 24.0171 9.48061C24.2121 9.39936 24.3891 9.2803 24.5379 9.1303C24.6879 8.98152 24.8069 8.80451 24.8882 8.60949C24.9694 8.41447 25.0113 8.20529 25.0113 7.99402C25.0113 7.78274 24.9694 7.57356 24.8882 7.37854C24.8069 7.18352 24.6879 7.00651 24.5379 6.85773L18.1363 0.456135C17.9841 0.310434 17.8046 0.196222 17.6082 0.120052C17.2185 -0.0400172 16.7815 -0.0400172 16.3918 0.120052C16.1954 0.196222 16.0159 0.310434 15.8637 0.456135L9.46212 6.85773C9.3129 7.00695 9.19454 7.1841 9.11378 7.37906C9.03302 7.57403 8.99146 7.78299 8.99146 7.99402C8.99146 8.20504 9.03302 8.414 9.11378 8.60897C9.19454 8.80393 9.3129 8.98108 9.46212 9.1303C9.61134 9.27952 9.78849 9.39788 9.98345 9.47864C10.1784 9.5594 10.3874 9.60096 10.5984 9.60096C10.8094 9.60096 11.0184 9.5594 11.2134 9.47864C11.4083 9.39788 11.5855 9.27952 11.7347 9.1303ZM31.4036 15.996C30.9791 15.996 30.5721 16.1646 30.2719 16.4648C29.9718 16.7649 29.8032 17.172 29.8032 17.5964V27.1988C29.8032 27.6233 29.6346 28.0303 29.3344 28.3305C29.0343 28.6306 28.6272 28.7992 28.2028 28.7992H5.79721C5.37275 28.7992 4.96569 28.6306 4.66555 28.3305C4.36542 28.0303 4.19681 27.6233 4.19681 27.1988V17.5964C4.19681 17.172 4.02819 16.7649 3.72806 16.4648C3.42793 16.1646 3.02086 15.996 2.59641 15.996C2.17196 15.996 1.76489 16.1646 1.46476 16.4648C1.16462 16.7649 0.99601 17.172 0.99601 17.5964V27.1988C0.99601 28.4722 1.50185 29.6934 2.40225 30.5938C3.30265 31.4942 4.52385 32 5.79721 32H28.2028C29.4761 32 30.6974 31.4942 31.5978 30.5938C32.4982 29.6934 33.004 28.4722 33.004 27.1988V17.5964C33.004 17.172 32.8354 16.7649 32.5352 16.4648C32.2351 16.1646 31.828 15.996 31.4036 15.996Z" fill="#F5F6F6"/>
</svg>