<svg xmlns="http://www.w3.org/2000/svg" width="42" height="42" viewBox="0 0 42 42" fill="none">
<path d="M0 0H42V42H0V0Z" fill="white" fill-opacity="0.01"/>
<path d="M3.5 5.25L4.23336 3.66107C3.69149 3.41098 3.05953 3.45428 2.55683 3.77592C2.05413 4.09756 1.75 4.65321 1.75 5.25H3.5ZM3.5 31.5H1.75C1.75 32.1826 2.14688 32.8029 2.76665 33.0889L3.5 31.5ZM14.875 36.75L14.1417 38.3389C14.6836 38.589 15.3155 38.5458 15.8182 38.2241C16.3209 37.9025 16.625 37.3468 16.625 36.75H14.875ZM14.875 10.5H16.625C16.625 9.81742 16.2281 9.19713 15.6083 8.91109L14.875 10.5ZM2.76665 33.0889L14.1417 38.3389L15.6083 35.1611L4.23336 29.9111L2.76665 33.0889ZM15.6083 8.91109L4.23336 3.66107L2.76665 6.83893L14.1417 12.0889L15.6083 8.91109ZM13.125 10.5V36.75H16.625V10.5H13.125ZM5.25 31.5V5.25H1.75V31.5H5.25Z" fill="#F5F6F6"/>
<path d="M14.875 36.75H13.125C13.125 37.3383 13.4206 37.8872 13.9116 38.211C14.4028 38.5348 15.0237 38.5902 15.5643 38.3585L14.875 36.75ZM27.125 31.5L27.8143 33.1085C28.4578 32.8327 28.875 32.2001 28.875 31.5H27.125ZM27.125 5.25001H28.875C28.875 4.66175 28.5794 4.11287 28.0884 3.78904C27.5972 3.46521 26.9763 3.40978 26.4357 3.6415L27.125 5.25001ZM14.875 10.5L14.1857 8.89149C13.5422 9.16729 13.125 9.79992 13.125 10.5H14.875ZM15.5643 38.3585L27.8143 33.1085L26.4357 29.8915L14.1857 35.1415L15.5643 38.3585ZM26.4357 3.6415L14.1857 8.89149L15.5643 12.1085L27.8143 6.85851L26.4357 3.6415ZM28.875 31.5V5.25001H25.375V31.5H28.875ZM13.125 10.5V36.75H16.625V10.5H13.125Z" fill="#F5F6F6"/>
<path d="M27.125 31.5H25.375C25.375 32.1826 25.7719 32.8029 26.3917 33.0889L27.125 31.5ZM38.5 36.75L37.7667 38.3389C38.3086 38.589 38.9405 38.5458 39.4432 38.2241C39.9459 37.9025 40.25 37.3468 40.25 36.75H38.5ZM38.5 10.5H40.25C40.25 9.81742 39.8531 9.19713 39.2333 8.91109L38.5 10.5ZM27.125 5.25L27.8583 3.66107C27.3165 3.41098 26.6845 3.45428 26.1818 3.77592C25.6792 4.09756 25.375 4.65321 25.375 5.25H27.125ZM26.3917 33.0889L37.7667 38.3389L39.2333 35.1611L27.8583 29.9111L26.3917 33.0889ZM39.2333 8.91109L27.8583 3.66107L26.3917 6.83893L37.7667 12.0889L39.2333 8.91109ZM36.75 10.5V36.75H40.25V10.5H36.75ZM28.875 31.5V5.25H25.375V31.5H28.875Z" fill="#F5F6F6"/>
</svg>